# xmcd
#
# Track frame offsets: 
#        150
#        16161
#        32480
#        56013
#
# Disc length: 1114 seconds
#
# Revision: 1
# Processed by: cddbd v1.5.2PL0 Copyright (c) Steve Scherf et al.
# Submitted via: ExactAudioCopy v1.0b3
#
DISCID=25045804
DTITLE=Gitta vs. Rozalla - Everybody's Turning Back
DYEAR=2001
DGENRE=Club
TTITLE0=Everybody's Turning Back (Original Radio Cut)
TTITLE1=Everybody's Turning Back (Accenter and Three O. Airplay Edit)
TTITLE2=Everybody's Turning Back (Original Club Mix)
TTITLE3=Everybody's Turning Back (Accenter and Three O. Club Rmx)
EXTD=
EXTT0=
EXTT1=
EXTT2=
EXTT3=
PLAYORDER=
